<svg width="22" height="22" viewBox="0 0 22 22" fill="none" xmlns="http://www.w3.org/2000/svg">
  <!-- 大脑轮廓 -->
  <path d="M11 3C7.5 3 4.5 5.5 4.5 9C4.5 11.5 6 13.5 7.5 14.5V17C7.5 18.5 9 19 11 19C13 19 14.5 18.5 14.5 17V14.5C16 13.5 17.5 11.5 17.5 9C17.5 5.5 14.5 3 11 3Z"
        stroke="white"
        stroke-width="1.5"
        stroke-linecap="round"
        stroke-linejoin="round"
        fill="none"/>

  <!-- 左脑半球 -->
  <path d="M8 7C8 7 7 8 7 9.5C7 11 8 12 8 12"
        stroke="white"
        stroke-width="1.2"
        stroke-linecap="round"
        opacity="0.7"/>

  <!-- 右脑半球 -->
  <path d="M14 7C14 7 15 8 15 9.5C15 11 14 12 14 12"
        stroke="white"
        stroke-width="1.2"
        stroke-linecap="round"
        opacity="0.7"/>

  <!-- 中间分隔线 -->
  <path d="M11 5V13"
        stroke="white"
        stroke-width="1"
        stroke-linecap="round"
        opacity="0.5"/>

  <!-- 神经元连接点 -->
  <circle cx="8" cy="9" r="0.8" fill="white" opacity="0.8"/>
  <circle cx="14" cy="9" r="0.8" fill="white" opacity="0.8"/>
  <circle cx="11" cy="7" r="0.8" fill="white" opacity="0.8"/>
</svg>